<svg width="54" height="42" viewBox="0 0 54 42" fill="none" xmlns="http://www.w3.org/2000/svg">
<path d="M11.2439 5.03507C11.2439 5.5195 11.271 6.01249 11.2326 6.49565C11.4198 6.30329 11.6082 6.11103 11.7965 5.91867C10.8165 5.91867 9.83758 5.91867 8.85869 5.91867C7.29788 5.91867 5.73821 5.91867 4.1774 5.91867C3.82103 5.91867 3.46241 5.91867 3.10604 5.91867C3.29324 6.11103 3.48158 6.30329 3.66991 6.49565C3.62593 5.94971 3.63947 5.38011 3.66315 4.8329C3.69924 3.97619 4.05674 3.08693 4.62174 2.44994C5.2296 1.76263 5.97955 1.34478 6.88852 1.19291C7.29564 1.12495 7.88995 1.14525 8.36248 1.26677C8.86433 1.39578 9.33799 1.62312 9.75075 1.94415C10.6936 2.67681 11.2337 3.83136 11.2439 5.03507C11.2507 5.7773 12.3784 5.77915 12.3716 5.03507C12.3592 3.68169 11.8326 2.36673 10.8785 1.42232C9.93457 0.48795 8.63427 -0.0379133 7.31931 0.00212955C5.07734 0.0704446 3.06431 1.7527 2.63126 4.02315C2.54442 4.47931 2.53088 4.93329 2.53088 5.39523C2.53088 5.76046 2.51284 6.13123 2.54216 6.49565C2.56697 6.80665 2.78012 7.07275 3.10604 7.07275C4.08492 7.07275 5.06494 7.07275 6.04383 7.07275C7.60351 7.07275 9.16431 7.07275 10.7251 7.07275C11.0815 7.07275 11.439 7.07275 11.7965 7.07275C12.119 7.07275 12.3356 6.80723 12.3604 6.49565C12.3987 6.01249 12.3716 5.5195 12.3716 5.03507C12.3716 4.29248 11.2439 4.29121 11.2439 5.03507Z" fill="#29A64C"/>
<path d="M22.3112 5.03509C22.3112 5.51958 22.3387 6.01251 22.2992 6.49578C22.4869 6.30345 22.6758 6.111 22.8635 5.91867C21.8843 5.91867 20.9051 5.91867 19.9246 5.91867C18.3655 5.91867 16.8052 5.91867 15.2449 5.91867C14.8874 5.91867 14.5298 5.91867 14.1735 5.91867C14.3613 6.111 14.549 6.30345 14.7367 6.49578C14.6937 5.94975 14.7068 5.38011 14.7295 4.83286C14.7666 3.97632 15.1241 3.08699 15.6884 2.44994C16.297 1.76272 17.0467 1.34479 17.9554 1.19296C18.3631 1.12494 18.9574 1.14537 19.4296 1.26686C19.9318 1.39581 20.4053 1.62312 20.8178 1.94416C21.7612 2.67676 22.3004 3.83146 22.3112 5.03509C22.3171 5.77736 23.4446 5.7792 23.4387 5.03509C23.4267 3.68171 22.8994 2.36686 21.9453 1.42236C21.0019 0.488005 19.701 -0.0379586 18.3858 0.00217056C16.144 0.0704393 14.1317 1.75281 13.6989 4.02318C13.6116 4.47928 13.5984 4.9333 13.5984 5.39528C13.5984 5.76048 13.5805 6.13131 13.6092 6.49578C13.6343 6.80666 13.8471 7.07275 14.1735 7.07275C15.1528 7.07275 16.132 7.07275 17.1113 7.07275C18.6716 7.07275 20.2319 7.07275 21.7922 7.07275C22.1485 7.07275 22.506 7.07275 22.8635 7.07275C23.1864 7.07275 23.4028 6.80727 23.4267 6.49578C23.4662 6.01251 23.4387 5.51958 23.4387 5.03509C23.4387 4.29246 22.3112 4.29136 22.3112 5.03509Z" fill="#29A64C"/>
<path d="M33.3769 5.03535C33.3769 5.51968 33.4047 6.0128 33.3668 6.49597C33.5538 6.30358 33.7421 6.11119 33.9303 5.91894C32.9511 5.91894 31.9718 5.91894 30.9926 5.91894C29.4321 5.91894 27.8716 5.91894 26.3124 5.91894C25.9548 5.91894 25.5972 5.91894 25.2397 5.91894C25.4279 6.11119 25.6162 6.30358 25.8045 6.49597C25.7602 5.94997 25.7729 5.3803 25.7969 4.83314C25.8335 3.97645 26.1911 3.08717 26.7559 2.45015C27.3649 1.76296 28.1142 1.34496 29.0227 1.19317C29.4296 1.12516 30.0247 1.14559 30.4973 1.26699C30.9989 1.39615 31.4727 1.62345 31.8859 1.94436C32.8285 2.67667 33.368 3.83189 33.3769 5.03535C33.3845 5.77762 34.5116 5.7793 34.5052 5.03535C34.4939 3.68243 33.967 2.36676 33.013 1.42253C32.0691 0.488396 30.7689 -0.0376987 29.4536 0.0023818C27.2121 0.0706482 25.1992 1.753 24.7658 4.02338C24.6787 4.47952 24.6648 4.9336 24.6648 5.39556C24.6648 5.76068 24.6471 6.13149 24.6761 6.49597C24.7014 6.80692 24.9149 7.073 25.2397 7.073C26.2189 7.073 27.1982 7.073 28.1787 7.073C29.7379 7.073 31.2984 7.073 32.8588 7.073C33.2164 7.073 33.5727 7.073 33.9303 7.073C34.2538 7.073 34.4686 6.80743 34.4939 6.49597C34.533 6.0128 34.5052 5.51968 34.5052 5.03535C34.5052 4.29269 33.3769 4.29153 33.3769 5.03535Z" fill="#29A64C"/>
<path d="M44.4445 5.03514C44.4445 5.51961 44.4725 6.01267 44.4339 6.49577C44.6216 6.3034 44.8093 6.11103 44.9971 5.91879C44.0184 5.91879 43.0385 5.91879 42.0599 5.91879C40.4994 5.91879 38.939 5.91879 37.3785 5.91879C37.0217 5.91879 36.6649 5.91879 36.308 5.91879C36.4958 6.11103 36.6835 6.3034 36.8712 6.49577C36.8273 5.94972 36.8406 5.38023 36.8646 4.83296C36.9005 3.97628 37.2587 3.08704 37.8219 2.44998C38.4317 1.76278 39.18 1.34479 40.0893 1.19302C40.4968 1.12504 41.0906 1.14534 41.5632 1.26686C42.0652 1.39588 42.5392 1.62327 42.9519 1.94425C43.8946 2.67655 44.4352 3.83173 44.4445 5.03514C44.4512 5.77738 45.5789 5.77915 45.5722 5.03514C45.5616 3.68227 45.0343 2.3666 44.0797 1.42245C43.1357 0.488118 41.8349 -0.0379066 40.5207 0.00214815C38.2786 0.0705409 36.2654 1.75284 35.8327 4.02328C35.7462 4.47942 35.7315 4.93337 35.7315 5.39536C35.7315 5.76048 35.7142 6.13133 35.7435 6.49577C35.7688 6.80668 35.9818 7.07275 36.308 7.07275C37.2866 7.07275 38.2653 7.07275 39.2452 7.07275C40.8057 7.07275 42.3661 7.07275 43.9252 7.07275C44.2834 7.07275 44.6402 7.07275 44.9971 7.07275C45.3206 7.07275 45.5363 6.80736 45.5616 6.49577C45.6002 6.01267 45.5722 5.51961 45.5722 5.03514C45.5722 4.29249 44.4445 4.2914 44.4445 5.03514Z" fill="#29A64C"/>
<path d="M20.032 4.79923C20.032 5.36471 20.032 5.93019 20.032 6.49579C20.2198 6.30343 20.4089 6.11106 20.5968 5.9187C19.3844 5.9187 18.1733 5.9187 16.9622 5.9187C16.7873 5.9187 16.6136 5.9187 16.4387 5.9187C16.6266 6.11106 16.8157 6.30343 17.0035 6.49579C17.0035 5.91931 16.9917 5.34174 17.0035 4.7655C17.0083 4.56093 17.0685 4.28901 17.1548 4.1189C17.1891 4.05348 17.2245 3.9894 17.2647 3.92762C17.2753 3.91093 17.3557 3.80103 17.3226 3.84238C17.3616 3.79378 17.4029 3.74759 17.4466 3.70334C17.4655 3.68387 17.5967 3.56224 17.5648 3.58848C17.9795 3.25381 18.4734 3.15624 19.004 3.33047C19.6255 3.53456 20.0201 4.1467 20.032 4.79923C20.045 5.54099 21.1734 5.54341 21.1604 4.79923C21.1438 3.88144 20.7078 3.05214 19.9646 2.53768C19.2935 2.07376 18.3742 1.96265 17.6168 2.25911C16.8996 2.53949 16.3466 3.08938 16.0595 3.81808C15.8787 4.27511 15.8751 4.7493 15.8751 5.23208C15.8751 5.65331 15.8751 6.07455 15.8751 6.49579C15.8751 6.80773 16.1339 7.07275 16.4387 7.07275C17.6511 7.07275 18.8622 7.07275 20.0733 7.07275C20.247 7.07275 20.4219 7.07275 20.5968 7.07275C20.9016 7.07275 21.1604 6.80845 21.1604 6.49579C21.1604 5.93019 21.1604 5.36471 21.1604 4.79923C21.1604 4.05663 20.032 4.05542 20.032 4.79923Z" fill="#29A64C"/>
<path d="M8.96475 4.79942C8.96475 5.36488 8.96475 5.93045 8.96475 6.49591C9.15296 6.30355 9.34118 6.11119 9.52939 5.91883C8.3177 5.91883 7.10713 5.91883 5.89544 5.91883C5.72059 5.91883 5.54685 5.91883 5.372 5.91883C5.56022 6.11119 5.74843 6.30355 5.93552 6.49591C5.93552 5.91951 5.92438 5.34197 5.93663 4.76569C5.94109 4.56113 6.00123 4.28923 6.08921 4.11909C6.12262 4.05368 6.15826 3.98963 6.19724 3.92775C6.20726 3.91112 6.28857 3.80115 6.25515 3.84251C6.29413 3.79385 6.33646 3.74781 6.37989 3.70348C6.39882 3.684 6.53023 3.56252 6.49794 3.58862C6.91223 3.25392 7.40671 3.15637 7.93682 3.33061C8.55826 3.53483 8.95361 4.14678 8.96475 4.79942C8.97812 5.54118 10.1063 5.54357 10.0929 4.79942C10.0762 3.88172 9.64076 3.05221 8.89793 2.53792C8.22638 2.074 7.30759 1.96289 6.55028 2.25929C5.83307 2.53974 5.27956 3.08948 4.99223 3.81824C4.81181 4.27521 4.80847 4.74951 4.80847 5.23235C4.80847 5.65354 4.80847 6.07472 4.80847 6.49591C4.80847 6.80782 5.06685 7.073 5.372 7.073C6.58369 7.073 7.79538 7.073 9.00596 7.073C9.18081 7.073 9.35454 7.073 9.52939 7.073C9.83454 7.073 10.0929 6.80861 10.0929 6.49591C10.0929 5.93045 10.0929 5.36488 10.0929 4.79942C10.0929 4.05687 8.96475 4.05562 8.96475 4.79942Z" fill="#29A64C"/>
<path d="M31.0984 4.79926C31.0984 5.36476 31.0984 5.93025 31.0984 6.49575C31.2871 6.30346 31.4745 6.11104 31.6632 5.91875C30.4512 5.91875 29.2405 5.91875 28.0285 5.91875C27.8548 5.91875 27.6798 5.91875 27.5062 5.91875C27.6936 6.11104 27.8823 6.30346 28.0697 6.49575C28.0697 5.91939 28.0584 5.34174 28.0709 4.76551C28.0747 4.56094 28.1347 4.289 28.2221 4.11882C28.2559 4.05349 28.2921 3.98944 28.3308 3.92768C28.3421 3.91094 28.422 3.80098 28.3896 3.84241C28.4283 3.79369 28.4708 3.74767 28.5133 3.70343C28.5332 3.68387 28.6644 3.56227 28.632 3.58849C29.0455 3.25376 29.5403 3.15634 30.0701 3.33048C30.6924 3.53466 31.0872 4.1467 31.0984 4.79926C31.1122 5.54107 32.2405 5.5435 32.2267 4.79926C32.2105 3.88178 31.7757 3.05189 31.031 2.53779C30.36 2.07381 29.4416 1.9627 28.6832 2.25906C27.9672 2.53957 27.4125 3.08934 27.1251 3.81811C26.9451 4.27506 26.9414 4.7494 26.9414 5.23217C26.9414 5.65332 26.9414 6.0746 26.9414 6.49575C26.9414 6.80771 27.2 7.07275 27.5062 7.07275C28.7169 7.07275 29.9289 7.07275 31.1397 7.07275C31.3146 7.07275 31.4883 7.07275 31.6632 7.07275C31.9681 7.07275 32.2267 6.80835 32.2267 6.49575C32.2267 5.93025 32.2267 5.36476 32.2267 4.79926C32.2267 4.05669 31.0984 4.05541 31.0984 4.79926Z" fill="#29A64C"/>
<path d="M42.1684 4.79932C42.1684 5.36482 42.1684 5.93031 42.1684 6.4958C42.3555 6.30344 42.5439 6.11107 42.7323 5.91871C41.5203 5.91871 40.3096 5.91871 39.0976 5.91871C38.9237 5.91871 38.7485 5.91871 38.5746 5.91871C38.763 6.11107 38.9514 6.30344 39.1384 6.4958C39.1384 5.91939 39.1279 5.34176 39.1397 4.76549C39.1437 4.56099 39.203 4.28896 39.2912 4.11884C39.3242 4.05346 39.3598 3.98943 39.3993 3.9277C39.4098 3.91098 39.4915 3.80098 39.4586 3.84236C39.4968 3.7937 39.5389 3.7476 39.5824 3.70338C39.6008 3.68384 39.7326 3.56225 39.7009 3.58853C40.1146 3.25368 40.6086 3.15622 41.1395 3.33052C41.76 3.53461 42.1566 4.14648 42.1684 4.79932C42.1816 5.541 43.3093 5.54343 43.2961 4.79932C43.279 3.8816 42.8442 3.05189 42.0999 2.53776C41.428 2.0739 40.5098 1.96269 39.7523 2.25912C39.0357 2.5395 38.4811 3.08937 38.1939 3.8181C38.0134 4.27508 38.0107 4.74931 38.0107 5.23217C38.0107 5.65329 38.0107 6.07454 38.0107 6.4958C38.0107 6.80773 38.2689 7.07275 38.5746 7.07275C39.7866 7.07275 40.9973 7.07275 42.2093 7.07275C42.3831 7.07275 42.557 7.07275 42.7323 7.07275C43.0366 7.07275 43.2961 6.8084 43.2961 6.4958C43.2961 5.93031 43.2961 5.36482 43.2961 4.79932C43.2961 4.0567 42.1684 4.05549 42.1684 4.79932Z" fill="#29A64C"/>
<path d="M46.9751 8.66898C46.9751 9.03324 46.9751 9.3975 46.9751 9.76176C46.9751 10.7411 46.9751 11.7203 46.9751 12.6995C46.9751 14.1054 46.9751 15.5113 46.9751 16.9172C46.9751 18.5742 46.9751 20.2314 46.9751 21.8881C46.9751 23.626 46.9751 25.3634 46.9751 27.1008C46.9751 28.7232 46.9751 30.345 46.9751 31.9676C46.9751 33.3043 46.9751 34.6412 46.9751 35.9775C46.9751 36.8526 46.9751 37.7274 46.9751 38.602C46.9751 38.806 46.9751 39.0102 46.9751 39.2142C46.9751 39.2497 46.9765 39.2849 46.9751 39.3204C46.9711 39.6767 46.8404 40.0605 46.6222 40.3096C46.2734 40.7091 45.876 40.8453 45.3575 40.8453C45.0612 40.8453 44.7649 40.8453 44.4686 40.8453C43.2604 40.8453 42.0509 40.8453 40.8414 40.8453C39.1942 40.8453 37.5469 40.8453 35.8983 40.8453C34.305 40.8453 32.7103 40.8453 31.1156 40.8453C30.0407 40.8453 28.9659 40.8453 27.8911 40.8453C27.6958 40.8453 27.5019 40.8467 27.3066 40.8453C26.4446 40.8395 25.5974 40.4245 25.0883 39.7513C25.0061 39.6436 24.9347 39.5277 24.8687 39.4099C24.8377 39.355 24.8081 39.2998 24.7812 39.2435C24.7461 39.1752 24.7192 39.1127 24.7111 39.0915C24.6613 38.9627 24.6195 38.8299 24.5859 38.6953C24.5711 38.6329 24.5576 38.5693 24.5441 38.5058C24.5226 38.3895 24.5266 38.413 24.5199 38.3346C24.4875 37.976 24.497 37.6231 24.4377 37.2653C24.3785 36.905 24.2586 36.5607 24.1064 36.2313C23.4908 34.8985 22.1291 34.0315 20.7015 33.9824C20.0374 33.9592 19.3707 33.9799 18.7081 33.9799C17.2265 33.9799 15.7463 33.9799 14.2647 33.9799C12.6134 33.9799 10.9621 33.9799 9.31086 33.9799C8.15388 33.9799 6.99557 33.9799 5.8359 33.9799C5.65138 33.9799 5.46685 33.9809 5.28098 33.9799C4.24657 33.9743 3.23103 33.5798 2.47678 32.8663C2.06329 32.4749 1.79255 32.1032 1.53934 31.5785C1.33057 31.1481 1.17165 30.5456 1.14067 30.0676C1.12451 29.8426 1.12854 29.6171 1.12854 29.392C1.12854 28.4856 1.12854 27.5791 1.12854 26.6727C1.12854 25.1633 1.12854 23.6535 1.12854 22.1435C1.12854 20.4226 1.12854 18.7016 1.12854 16.9805C1.12854 15.4193 1.12854 13.858 1.12854 12.2968C1.12854 11.2723 1.12854 10.2476 1.12854 9.22302C1.12854 9.02952 1.12719 8.83574 1.12854 8.64224C1.13124 8.33063 1.19724 8.05582 1.3629 7.77894C1.61747 7.35142 2.09022 7.08088 2.61551 7.07289C2.88623 7.06875 3.15829 7.07289 3.42902 7.07289C4.15094 7.07289 4.87288 7.07289 5.59346 7.07289C6.68578 7.07289 7.7781 7.07289 8.87042 7.07289C10.2375 7.07289 11.606 7.07289 12.973 7.07289C14.5341 7.07289 16.0951 7.07289 17.6575 7.07289C19.3276 7.07289 20.9978 7.07289 22.6666 7.07289C24.3677 7.07289 26.0688 7.07289 27.7699 7.07289C29.3996 7.07289 31.0307 7.07289 32.6618 7.07289C34.1447 7.07289 35.6263 7.07289 37.1092 7.07289C38.3631 7.07289 39.6184 7.07289 40.8724 7.07289C41.8017 7.07289 42.7297 7.07289 43.6591 7.07289C44.1844 7.07289 44.7083 7.07289 45.2322 7.07289C45.3157 7.07289 45.3993 7.07192 45.4828 7.07289C45.7521 7.07605 45.9798 7.12898 46.2195 7.27534C46.6411 7.53238 46.9643 8.0827 46.9751 8.66898C46.9899 9.41073 48.1173 9.41321 48.1038 8.66898C48.0755 7.19031 46.9536 5.93766 45.4895 5.91879C45.4208 5.91782 45.3535 5.91879 45.2875 5.91879C44.7851 5.91879 44.2827 5.91879 43.7803 5.91879C42.8563 5.91879 41.9324 5.91879 41.0084 5.91879C39.7531 5.91879 38.4978 5.91879 37.2425 5.91879C35.7515 5.91879 34.2605 5.91879 32.7695 5.91879C31.1182 5.91879 29.467 5.91879 27.8157 5.91879C26.0998 5.91879 24.3825 5.91879 22.6666 5.91879C20.9816 5.91879 19.2966 5.91879 17.6117 5.91879C16.0318 5.91879 14.4506 5.91879 12.8707 5.91879C11.4915 5.91879 10.1123 5.91879 8.73305 5.91879C7.64881 5.91879 6.56457 5.91879 5.48033 5.91879C4.76918 5.91879 4.05801 5.91879 3.34686 5.91879C2.96973 5.91879 2.58587 5.89894 2.21278 5.95503C0.922468 6.14936 0.0160129 7.31848 0.00119723 8.6297C-0.00149654 8.80473 0.00119723 8.98005 0.00119723 9.15521C0.00119723 10.1714 0.00119723 11.1875 0.00119723 12.2035C0.00119723 13.7723 0.00119723 15.3411 0.00119723 16.9099C0.00119723 18.6545 0.00119723 20.3991 0.00119723 22.1435C0.00119723 23.6649 0.00119723 25.1864 0.00119723 26.7078C0.00119723 27.6133 0.00119723 28.5192 0.00119723 29.4247C0.00119723 29.6949 -0.00149127 29.9638 0.0267933 30.233C0.1534 31.4943 0.684072 32.6792 1.56897 33.5736C2.45388 34.4681 3.62028 35.0013 4.85537 35.1143C5.13687 35.1404 5.41972 35.134 5.70257 35.134C6.81509 35.134 7.92896 35.134 9.04148 35.134C10.7049 35.134 12.3696 35.134 14.033 35.134C15.5483 35.134 17.0635 35.134 18.5774 35.134C19.2468 35.134 19.9162 35.1282 20.5856 35.134C21.7857 35.1446 22.8888 35.941 23.2471 37.1287C23.4383 37.76 23.3427 38.4256 23.5151 39.0646C23.6794 39.6796 23.9973 40.2466 24.4175 40.7159C25.1556 41.5377 26.2196 41.9917 27.3039 41.9994C27.4965 42.0008 27.6891 41.9994 27.8817 41.9994C28.9659 41.9994 30.0502 41.9994 31.1344 41.9994C32.7547 41.9994 34.3737 41.9994 35.9926 41.9994C37.6506 41.9994 39.3073 41.9994 40.9653 41.9994C42.164 41.9994 43.3614 41.9994 44.5602 41.9994C44.8376 41.9994 45.1164 41.9994 45.3939 41.9994C46.1468 41.9994 46.8835 41.7262 47.4007 41.1482C47.8694 40.6222 48.1011 39.958 48.1038 39.2497C48.1038 39.0598 48.1038 38.8699 48.1038 38.68C48.1038 37.8259 48.1038 36.9719 48.1038 36.1174C48.1038 34.7758 48.1038 33.4341 48.1038 32.0926C48.1038 30.4523 48.1038 28.8117 48.1038 27.1715C48.1038 25.4264 48.1038 23.6813 48.1038 21.9362C48.1038 20.2559 48.1038 18.5758 48.1038 16.8956C48.1038 15.4801 48.1038 14.0645 48.1038 12.6491C48.1038 11.6707 48.1038 10.6923 48.1038 9.71393C48.1038 9.36566 48.1038 9.01725 48.1038 8.66898C48.1038 7.92641 46.9751 7.92517 46.9751 8.66898Z" fill="#29A64C"/>
<path d="M47.5392 9.25742C47.1174 9.25742 46.6955 9.25742 46.2737 9.25742C45.1361 9.25742 43.9986 9.25742 42.8624 9.25742C41.1763 9.25742 39.4902 9.25742 37.8041 9.25742C35.746 9.25742 33.6893 9.25742 31.6325 9.25742C29.3871 9.25742 27.1416 9.25742 24.8962 9.25742C22.6157 9.25742 20.3326 9.25742 18.0521 9.25742C15.9387 9.25742 13.8254 9.25742 11.712 9.25742C9.92081 9.25742 8.12823 9.25742 6.33566 9.25742C5.04851 9.25742 3.75867 9.25742 2.47017 9.25742C1.86232 9.25742 1.25311 9.24708 0.643905 9.25742C0.616949 9.25783 0.589988 9.25742 0.56438 9.25742C-0.160737 9.25742 -0.163432 10.4115 0.56438 10.4115C0.986241 10.4115 1.40675 10.4115 1.82861 10.4115C2.96616 10.4115 4.1037 10.4115 5.24125 10.4115C6.92734 10.4115 8.61344 10.4115 10.2995 10.4115C12.3563 10.4115 14.413 10.4115 16.4698 10.4115C18.7152 10.4115 20.9606 10.4115 23.2061 10.4115C25.4879 10.4115 27.7697 10.4115 30.0515 10.4115C32.1649 10.4115 34.2769 10.4115 36.3903 10.4115C38.1828 10.4115 39.974 10.4115 41.7666 10.4115C43.0551 10.4115 44.3436 10.4115 45.6321 10.4115C46.24 10.4115 46.8505 10.4217 47.4584 10.4115C47.4853 10.4109 47.5123 10.4115 47.5392 10.4115C48.2644 10.4115 48.2657 9.25742 47.5392 9.25742Z" fill="#29A64C"/>
<path d="M20.9353 26.9375H8.12972C6.99679 26.9375 6.07983 25.9979 6.07983 24.8395V15.8012C6.07983 15.0262 6.6935 14.398 7.45114 14.398C7.82996 14.398 8.1722 14.555 8.42002 14.8088C8.66903 15.0627 8.82244 15.4135 8.82244 15.8012V22.5165C8.82244 23.2113 9.37238 23.7749 10.0521 23.7749H17.1471" fill="#29A64C"/>
<path d="M20.9356 26.3607C20.0034 26.3607 19.0711 26.3607 18.1388 26.3607C16.2802 26.3607 14.424 26.3607 12.5654 26.3607C11.196 26.3607 9.82661 26.3607 8.45722 26.3607C8.35298 26.3607 8.24874 26.3616 8.14568 26.3607C7.74292 26.3558 7.36267 26.2048 7.07955 25.9149C6.7917 25.621 6.64836 25.2316 6.64481 24.818C6.64244 24.6723 6.64481 24.5261 6.64481 24.3799C6.64481 22.6926 6.64481 21.0057 6.64481 19.3183C6.64481 18.4759 6.64481 17.6336 6.64481 16.7912C6.64481 16.5416 6.64481 16.2921 6.64481 16.0425C6.64481 15.9781 6.64362 15.9136 6.64481 15.8491C6.64481 15.7719 6.65192 15.6736 6.6531 15.6642C6.68746 15.4893 6.70403 15.4534 6.79643 15.3144C6.85211 15.2315 6.91963 15.1652 7.02625 15.0985C7.05231 15.0825 7.07837 15.0675 7.1068 15.0533C7.19327 15.0073 7.04638 15.0728 7.13878 15.0367C7.20512 15.0109 7.27737 14.9899 7.34726 14.9785C7.27737 14.9899 7.38043 14.9771 7.38635 14.9767C7.43255 14.9747 7.48113 14.9733 7.52732 14.9773C7.58182 14.9822 7.67066 15.0021 7.73463 15.0262C8.08408 15.1551 8.25703 15.4953 8.2594 15.8647C8.26177 16.4815 8.2594 17.0984 8.2594 17.7152C8.2594 19.2909 8.25229 20.8667 8.2594 22.4426C8.26295 23.5177 9.05425 24.3459 10.1109 24.3521C10.6748 24.3554 11.2386 24.3521 11.8025 24.3521C13.4716 24.3521 15.1395 24.3521 16.8086 24.3521C16.9211 24.3521 17.0336 24.3521 17.1473 24.3521C17.8735 24.3521 17.8747 23.198 17.1473 23.198C15.7709 23.198 14.3932 23.198 13.0167 23.198C12.2052 23.198 11.3938 23.198 10.5824 23.198C10.413 23.198 10.2424 23.2014 10.073 23.198C9.90241 23.1951 9.82186 23.1735 9.68208 23.0831C9.51505 22.9758 9.39423 22.759 9.38712 22.5499C9.33856 21.1072 9.38712 19.6546 9.38712 18.2112C9.38712 17.4765 9.38712 16.7418 9.38712 16.007C9.38712 15.6448 9.34803 15.3019 9.20114 14.964C8.83866 14.1262 7.91113 13.6903 7.04757 13.8657C6.30602 14.0166 5.69003 14.6597 5.55499 15.4205C5.51827 15.628 5.5159 15.8263 5.5159 16.0341C5.5159 16.6812 5.5159 17.3284 5.5159 17.9755C5.5159 19.8399 5.5159 21.7044 5.5159 23.5688C5.5159 23.9905 5.51116 24.4122 5.5159 24.8339C5.53367 26.3054 6.69218 27.4955 8.13027 27.5147C9.10992 27.5277 10.0884 27.5147 11.068 27.5147C12.961 27.5147 14.8528 27.5147 16.7458 27.5147C18.0749 27.5147 19.404 27.5147 20.7331 27.5147C20.8006 27.5147 20.8681 27.5147 20.9356 27.5147C21.6618 27.5147 21.663 26.3607 20.9356 26.3607Z" fill="#29A64C"/>
<path d="M31.5083 26.9377H19.1978C18.0649 26.9377 17.1473 25.9981 17.1473 24.8397V15.8014C17.1473 15.0265 17.7611 14.3983 18.5181 14.3983H18.5193C19.2763 14.3983 19.89 15.0265 19.89 15.8014V22.5167C19.89 23.2115 20.4403 23.7751 21.1201 23.7751H28.214" fill="#29A64C"/>
<path d="M31.5072 26.3608C30.5601 26.3608 29.6131 26.3608 28.6647 26.3608C26.8168 26.3608 24.9676 26.3608 23.1197 26.3608C21.8615 26.3608 20.6033 26.3608 19.3451 26.3608C19.3039 26.3608 19.2626 26.3613 19.2227 26.3608C19.1152 26.3599 19.0165 26.3546 18.964 26.3449C18.8928 26.3315 18.8216 26.3132 18.7516 26.2916C18.7266 26.2839 18.5805 26.2281 18.6267 26.2493C18.553 26.216 18.4805 26.1753 18.4118 26.1314C18.3768 26.1098 18.3431 26.0872 18.3093 26.0636C18.2981 26.0555 18.2369 26.005 18.2793 26.0405C18.0644 25.8613 17.8945 25.6237 17.817 25.4149C17.6671 25.0096 17.7096 24.5417 17.7096 24.0599C17.7096 22.3096 17.7096 20.5589 17.7096 18.8087C17.7096 18.0339 17.7096 17.2593 17.7096 16.4845C17.7096 16.2884 17.7096 16.0923 17.7096 15.8961C17.7096 15.8651 17.7096 15.834 17.7096 15.8029C17.7121 15.6765 17.7121 15.6728 17.7508 15.5416C17.7733 15.4648 17.8658 15.3051 17.9045 15.2621C18.2156 14.9183 18.7504 14.8731 19.0677 15.1959C19.2339 15.3658 19.3201 15.5567 19.3251 15.8018C19.3251 15.8387 19.3251 15.8757 19.3251 15.9126C19.3251 16.5578 19.3251 17.2028 19.3251 17.8479C19.3251 19.3877 19.3151 20.9279 19.3251 22.4677C19.3326 23.5449 20.1473 24.3484 21.1918 24.3522C21.7715 24.3547 22.3513 24.3522 22.931 24.3522C24.5791 24.3522 26.2258 24.3522 27.8738 24.3522C27.9875 24.3522 28.1 24.3522 28.2137 24.3522C28.9384 24.3522 28.9396 23.1981 28.2137 23.1981C26.8518 23.1981 25.4899 23.1981 24.1292 23.1981C23.3196 23.1981 22.5112 23.1981 21.7016 23.1981C21.5179 23.1981 21.333 23.2001 21.1481 23.1981C20.802 23.1953 20.5158 22.975 20.4596 22.637C20.4409 22.5235 20.4534 22.3187 20.4534 22.1677C20.4534 21.8402 20.4534 21.5127 20.4534 21.1853C20.4534 20.2327 20.4534 19.2801 20.4534 18.3274C20.4534 17.5731 20.4534 16.8188 20.4534 16.0644C20.4534 15.8153 20.4534 15.5724 20.3971 15.3264C20.226 14.5839 19.5938 13.9782 18.8591 13.8555C18.0832 13.7259 17.326 14.0619 16.8887 14.7322C16.6651 15.0757 16.5826 15.4839 16.5826 15.8909C16.5813 16.438 16.5826 16.985 16.5826 17.5321C16.5826 19.3976 16.5826 21.2631 16.5826 23.1285C16.5826 23.6708 16.5813 24.2133 16.5826 24.7557C16.5851 25.9482 17.276 26.9994 18.393 27.3851C18.8366 27.538 19.3039 27.5149 19.7649 27.5149C20.3984 27.5149 21.0306 27.5149 21.6641 27.5149C23.5345 27.5149 25.4037 27.5149 27.2729 27.5149C28.6148 27.5149 29.9554 27.5149 31.2961 27.5149C31.3673 27.5149 31.4373 27.5149 31.5072 27.5149C32.2332 27.5149 32.2344 26.3608 31.5072 26.3608Z" fill="#29A64C"/>
<path d="M39.2821 23.7751H32.1875C31.5083 23.7751 30.9569 23.2115 30.9569 22.5165V15.8014C30.9569 15.0265 30.3436 14.3982 29.5865 14.3982H29.5852C28.8282 14.3982 28.2148 15.0265 28.2148 15.8014V24.8396C28.2148 25.998 29.1315 26.9377 30.2645 26.9377H43.5634" fill="#29A64C"/>
<path d="M39.2819 23.1979C37.8751 23.1979 36.467 23.1979 35.0589 23.1979C34.2529 23.1979 33.447 23.1979 32.6423 23.1979C32.4915 23.1979 32.3419 23.2013 32.1911 23.1979C31.8086 23.1902 31.5293 22.9002 31.5214 22.5089C31.491 20.9715 31.5214 19.43 31.5214 17.8922C31.5214 17.2258 31.5227 16.5594 31.5214 15.893C31.5214 15.408 31.3944 14.9591 31.0992 14.5741C30.6215 13.9494 29.7785 13.6679 29.0321 13.9039C28.246 14.1528 27.7113 14.8679 27.6544 15.7027C27.6452 15.8329 27.6504 15.9651 27.6504 16.0956C27.6504 16.7857 27.6504 17.4758 27.6504 18.1659C27.6504 20.0447 27.6504 21.9231 27.6504 23.8018C27.6504 24.2309 27.62 24.6752 27.6663 25.1025C27.8172 26.4778 28.9368 27.5006 30.2867 27.5146C31.3785 27.5257 32.4703 27.5146 33.5608 27.5146C35.4982 27.5146 37.4357 27.5146 39.3732 27.5146C40.7019 27.5146 42.0319 27.5146 43.3619 27.5146C43.4294 27.5146 43.4969 27.5146 43.5644 27.5146C44.2896 27.5146 44.2909 26.3606 43.5644 26.3606C42.6327 26.3606 41.701 26.3606 40.7707 26.3606C38.8888 26.3606 37.0082 26.3606 35.1277 26.3606C33.6627 26.3606 32.199 26.3606 30.7353 26.3606C30.6003 26.3606 30.464 26.361 30.3277 26.3606C30.0418 26.3596 29.7957 26.3125 29.5588 26.1783C29.0705 25.9018 28.7859 25.4002 28.7793 24.8396C28.778 24.7381 28.7793 24.6371 28.7793 24.5357C28.7793 22.8752 28.7793 21.2148 28.7793 19.5545C28.7793 18.3042 28.7542 17.0513 28.7793 15.8012C28.7833 15.5473 28.8759 15.3316 29.081 15.1539C29.0374 15.1917 29.1935 15.0791 29.2134 15.0675C29.2796 15.0306 29.2385 15.0453 29.3325 15.0168C29.3563 15.0093 29.5138 14.9745 29.4582 14.9813C29.531 14.9723 29.6091 14.9727 29.6832 14.979C30.0736 15.0115 30.3873 15.3821 30.3939 15.8085C30.4031 16.3439 30.3939 16.8802 30.3939 17.4157C30.3939 19.0718 30.3939 20.7279 30.3939 22.3843C30.3939 22.7887 30.464 23.1907 30.6943 23.5306C31.0463 24.0524 31.5968 24.3428 32.2136 24.3519C32.7548 24.3602 33.2948 24.3519 33.836 24.3519C35.534 24.3519 37.2332 24.3519 38.9325 24.3519C39.0489 24.3519 39.1654 24.3519 39.2819 24.3519C40.0084 24.3519 40.0097 23.1979 39.2819 23.1979Z" fill="#29A64C"/>
<path d="M41.3316 26.9377H53.4355V23.7751H43.2547C42.5746 23.7751 42.0241 23.2114 42.0241 22.5166V15.8014C42.0241 15.0264 41.4102 14.3981 40.6529 14.3981C39.8942 14.3981 39.2803 15.0264 39.2803 15.8014V24.8397C39.2803 25.998 40.199 26.9377 41.3316 26.9377Z" fill="#29A64C"/>
<path d="M41.3322 27.5146C42.6958 27.5146 44.0594 27.5146 45.423 27.5146C47.5957 27.5146 49.7683 27.5146 51.941 27.5146C52.4403 27.5146 52.9381 27.5146 53.436 27.5146C53.7416 27.5146 54.0003 27.2501 54.0003 26.9376C54.0003 25.8835 54.0003 24.8289 54.0003 23.7749C54.0003 23.4633 53.7416 23.1978 53.436 23.1978C51.2827 23.1978 49.1294 23.1978 46.9747 23.1978C45.8573 23.1978 44.7385 23.1978 43.621 23.1978C43.5145 23.1978 43.4094 23.1988 43.3029 23.1978C43.1052 23.1964 42.9586 23.1513 42.8507 23.0618C42.646 22.892 42.5907 22.7304 42.5893 22.4723C42.588 22.3299 42.5893 22.1876 42.5893 22.0452C42.5893 20.6909 42.5893 19.3367 42.5893 17.9824C42.5893 17.3954 42.5893 16.8084 42.5893 16.2215C42.5893 15.6773 42.5714 15.1511 42.2477 14.6813C41.5466 13.6674 40.0502 13.5193 39.2232 14.4685C38.8235 14.9274 38.7184 15.4784 38.7184 16.0684C38.7184 17.2304 38.7184 18.3923 38.7184 19.5544C38.7184 20.9542 38.7184 22.354 38.7184 23.7537C38.7184 24.0972 38.717 24.4405 38.7184 24.7834C38.7212 25.6685 39.1042 26.4768 39.8026 27.0048C40.2452 27.3391 40.7832 27.5055 41.3322 27.5146C42.0583 27.5262 42.0583 26.3721 41.3322 26.3605C40.5121 26.3475 39.858 25.6825 39.8455 24.8391C39.8427 24.6073 39.8455 24.3751 39.8455 24.1427C39.8455 22.8527 39.8455 21.5625 39.8455 20.2722C39.8455 19.0051 39.8455 17.7378 39.8455 16.4707C39.8455 16.2477 39.8414 16.0243 39.8455 15.8012C39.8483 15.6674 39.8469 15.6812 39.8856 15.5413C39.9119 15.4493 39.9257 15.4238 39.999 15.3144C40.0695 15.2091 40.2452 15.0692 40.3697 15.026C40.5425 14.9663 40.7002 14.9544 40.8482 14.9996C40.9809 15.0399 40.9712 15.0323 41.0777 15.0985C41.0736 15.0958 41.2243 15.2118 41.158 15.154C41.1773 15.1704 41.3087 15.3099 41.2727 15.2638C41.4332 15.47 41.4594 15.6156 41.4608 15.8546C41.4608 15.9938 41.4608 16.1331 41.4608 16.2723C41.4608 16.8575 41.4608 17.4425 41.4608 18.0277C41.4608 19.358 41.4608 20.6884 41.4608 22.0188C41.4608 22.5083 41.4484 22.9762 41.6959 23.4248C42.0431 24.0573 42.6917 24.3519 43.3762 24.3519C44.3098 24.3519 45.2433 24.3519 46.1768 24.3519C48.5486 24.3519 50.919 24.3519 53.2908 24.3519C53.3392 24.3519 53.3876 24.3519 53.436 24.3519C53.2479 24.1596 53.0598 23.9673 52.8718 23.7749C52.8718 24.8289 52.8718 25.8835 52.8718 26.9376C53.0598 26.7453 53.2479 26.5528 53.436 26.3605C52.0724 26.3605 50.7102 26.3605 49.3465 26.3605C47.1739 26.3605 44.9999 26.3605 42.8272 26.3605C42.3293 26.3605 41.8301 26.3605 41.3322 26.3605C40.6061 26.3605 40.6048 27.5146 41.3322 27.5146Z" fill="#29A64C"/>
<path d="M38.5752 24.3521C39.3005 24.3521 39.3018 23.1979 38.5752 23.1979C37.8486 23.1979 37.8486 24.3521 38.5752 24.3521Z" fill="#29A64C"/>
<path d="M34.3488 40.0089L36.0583 41.4221L34.3488 40.0089Z" fill="#29A64C"/>
<path d="M33.9512 40.4173C34.522 40.888 35.0914 41.3593 35.6622 41.83C35.8984 42.0257 36.2278 42.0671 36.4589 41.83C36.6568 41.6276 36.6977 41.2111 36.4589 41.0139C35.8894 40.5432 35.3187 40.072 34.7492 39.6012C34.513 39.4055 34.1836 39.3646 33.9512 39.6012C33.7546 39.8036 33.7138 40.2205 33.9512 40.4173Z" fill="#29A64C"/>
<path d="M36.5226 38.898L39.5776 41.4221L36.5226 38.898Z" fill="#29A64C"/>
<path d="M36.1261 39.3059C37.1441 40.1475 38.162 40.989 39.18 41.83C39.4176 42.0257 39.7461 42.0671 39.9785 41.83C40.1758 41.6276 40.2161 41.2111 39.9785 41.014C38.9605 40.173 37.9413 39.3314 36.9233 38.4899C36.687 38.2942 36.3572 38.2534 36.1261 38.4899C35.9287 38.6924 35.8885 39.1093 36.1261 39.3059Z" fill="#29A64C"/>
<path d="M40.4806 39.345L43.0983 41.4224L40.4806 39.345Z" fill="#29A64C"/>
<path d="M40.0816 39.753C40.9541 40.445 41.8266 41.1375 42.7005 41.8299C42.9407 42.0208 43.2628 42.0698 43.4978 41.8299C43.6918 41.6313 43.7393 41.2063 43.4978 41.0139C42.6252 40.3214 41.7514 39.629 40.8802 38.9365C40.6386 38.7461 40.3165 38.697 40.0816 38.9365C39.8875 39.1356 39.84 39.5607 40.0816 39.753Z" fill="#29A64C"/>
<path d="M42.255 37.6832L46.2098 41.0732L42.255 37.6832Z" fill="#29A64C"/>
<path d="M41.8588 38.0908C43.0117 39.0794 44.1646 40.068 45.3176 41.0567C45.4836 41.1981 45.6483 41.3394 45.813 41.4814C46.046 41.6809 46.3821 41.715 46.6111 41.4814C46.812 41.2756 46.8455 40.8663 46.6111 40.6653C45.4582 39.6767 44.3039 38.6879 43.151 37.6993C42.9863 37.5579 42.8216 37.4161 42.6568 37.2747C42.4225 37.0746 42.0877 37.0411 41.8588 37.2747C41.6579 37.4805 41.6244 37.8898 41.8588 38.0908Z" fill="#29A64C"/>
<path d="M46.0537 38.0013L47.5408 39.3242L46.0537 38.0013Z" fill="#29A64C"/>
<path d="M45.6533 38.4091C46.1491 38.8501 46.6449 39.2911 47.1406 39.7319C47.3696 39.9364 47.7118 39.9633 47.9382 39.7319C48.1416 39.5232 48.1685 39.1213 47.9382 38.916C47.4424 38.475 46.9466 38.034 46.4509 37.5932C46.2218 37.3887 45.8796 37.3618 45.6533 37.5932C45.4499 37.8019 45.4229 38.2039 45.6533 38.4091Z" fill="#29A64C"/>
</svg>
