<svg width="52" height="42" viewBox="0 0 52 42" fill="none" xmlns="http://www.w3.org/2000/svg">
<path fill-rule="evenodd" clip-rule="evenodd" d="M34.6527 21.1004C34.6676 21.1314 34.6849 21.1614 34.7044 21.1902C34.8986 21.5439 35.0093 21.9511 35.0093 22.3838C35.0093 23.7216 33.9528 24.8124 32.6368 24.8516C32.5893 24.847 32.5411 24.847 32.493 24.8516C31.6432 24.8275 30.9012 24.3643 30.4814 23.6795C30.4625 23.6369 30.4392 23.5964 30.4118 23.5584C30.2241 23.2093 30.1173 22.8088 30.1173 22.3838C30.1173 21.9457 30.2314 21.5339 30.4306 21.177C30.4428 21.1581 30.4542 21.1384 30.4647 21.1182C30.893 20.3978 31.6745 19.915 32.5633 19.915H32.5676C33.4501 19.9164 34.2237 20.3911 34.6527 21.1004ZM33.7265 33.9829C37.3571 33.6146 40.4974 31.5409 42.3487 28.5707C41.7154 27.6141 39.5976 24.9326 35.6683 24.7057C35.1692 25.3827 34.4582 25.8913 33.6356 26.1314C35.0833 29.4571 34.3479 32.4219 33.7265 33.9829ZM23.1984 29.1993C24.8509 28.9611 27.7591 28.1198 29.8863 25.1921C30.4829 25.7715 31.2623 26.1599 32.1264 26.2588C33.9111 29.8385 32.662 33.0043 32.15 34.0334C28.4709 33.902 25.2237 32.0249 23.1984 29.1993ZM22.0304 17.5915C23.0574 18.9148 25.2316 21.041 28.8092 21.4397C28.7351 21.7408 28.6956 22.0558 28.6956 22.3795C28.6965 22.9335 28.8123 23.4608 29.02 23.9385C26.8454 27.2899 23.5038 27.7785 22.3631 27.849C21.5007 26.2165 21.0106 24.3548 21.0106 22.3799C21.0106 20.6743 21.3754 19.053 22.0304 17.5915ZM31.4105 10.7759C30.7891 12.3346 30.0511 15.2992 31.4969 18.6262C30.6718 18.8657 29.9587 19.3753 29.4587 20.0541C25.4968 19.826 23.4075 17.1518 22.7776 16.1898C24.6303 13.2163 27.7755 11.1415 31.4105 10.7759ZM41.93 15.5626C39.9069 12.7384 36.6626 10.8612 32.9866 10.7267C32.4846 11.7512 31.2327 14.944 33.0023 18.5007C33.8675 18.5999 34.6473 18.988 35.2435 19.5674C37.3699 16.6407 40.2784 15.8004 41.93 15.5626ZM43.8176 15.8666L43.8168 15.8651C43.8021 15.8355 43.7854 15.8069 43.7668 15.7798C41.5135 11.8962 37.3362 9.28281 32.5633 9.28281C25.4076 9.28281 19.5889 15.1565 19.5889 22.3799C19.5889 24.7565 20.2196 26.9867 21.3201 28.9103C21.3312 28.9319 21.3436 28.9528 21.3569 28.9732C23.607 32.8549 27.7787 35.4689 32.543 35.4763L32.549 35.4768H32.5555H32.5614H32.5633H32.5676H32.5788L32.5898 35.4763C37.3484 35.4668 41.5116 32.86 43.7618 28.9883C43.7893 28.9503 43.8127 28.9098 43.8319 28.8672C44.9171 26.9537 45.538 24.739 45.538 22.3799C45.538 20.0102 44.9119 17.7859 43.8176 15.8666ZM15.5897 12.8283H7.13895V4.19926H25.2552C21.2179 5.84805 17.7858 8.85548 15.5897 12.8283ZM5.71709 3.40256C5.71391 3.42864 5.71263 3.45505 5.71263 3.48178V13.5459C5.71263 13.5723 5.71391 13.5984 5.71709 13.6241V14.8316C5.71709 15.246 5.38277 15.5877 4.96804 15.5877H2.17059C1.76033 15.5877 1.42154 15.2504 1.42154 14.8316V2.19141C1.42154 1.77728 1.75587 1.43528 2.17059 1.43528H4.96804C5.3783 1.43528 5.71709 1.77277 5.71709 2.19141V3.40256ZM32.5633 4.19926C32.425 4.19926 32.287 4.20152 32.1494 4.20473L32.0466 4.20731C31.9193 4.21085 31.7924 4.21568 31.6659 4.22212L31.6311 4.22341C31.4972 4.2305 31.3642 4.23919 31.2313 4.24918L31.1159 4.25819C31.0008 4.26753 30.8861 4.27783 30.7715 4.2891L30.7121 4.2949C30.5854 4.30811 30.4591 4.32292 30.333 4.3387L30.1928 4.35673C30.0915 4.37025 29.9905 4.38443 29.8898 4.39988L29.804 4.41245C29.676 4.43241 29.5485 4.45399 29.4214 4.47685L29.3171 4.49553C29.2047 4.51646 29.0925 4.53803 28.9807 4.5609L28.9215 4.57281C28.7838 4.60147 28.6462 4.63174 28.5093 4.66363L28.4855 4.6691C20.5108 6.5388 14.5487 13.7693 14.5487 22.3799C14.5487 32.4057 22.6313 40.5645 32.5633 40.5645C42.4954 40.5645 50.5738 32.4057 50.5738 22.3799C50.5738 12.354 42.4954 4.19926 32.5633 4.19926ZM32.5633 42C43.2825 42 52 33.1999 52 22.3799C52 11.5595 43.2825 2.75979 32.5633 2.75979C32.4559 2.75979 32.349 2.76204 32.2419 2.76398H7.13895V2.19141C7.13895 0.982513 6.16531 0 4.96804 0H2.17059C0.973 0 0 0.982834 0 2.19141V14.8316C0 16.0407 0.973 17.0232 2.17059 17.0232H4.96804C6.16563 17.0232 7.13895 16.0405 7.13895 14.8316V14.2636H14.8694C13.7512 16.7382 13.1272 19.4868 13.1272 22.3799C13.1272 33.1999 21.8485 42 32.5633 42ZM36.1111 20.8252C38.2838 17.4762 41.6222 16.9832 42.7652 16.9139C43.6269 18.5452 44.1162 20.4059 44.1162 22.3799C44.1162 24.0824 43.7525 25.7015 43.0994 27.1611C42.0695 25.8367 39.8939 23.7149 36.3178 23.3189C36.3917 23.0183 36.4312 22.7036 36.4312 22.3795C36.4312 21.8272 36.3169 21.3015 36.1111 20.8252Z" fill="#29A64C"/>
<path fill-rule="evenodd" clip-rule="evenodd" d="M31.4105 10.7758C30.7892 12.3345 30.051 15.2991 31.4968 18.6261C30.6717 18.8657 29.9587 19.3753 29.4587 20.054C25.4967 19.826 23.4074 17.1518 22.7776 16.1896C24.6303 13.2162 27.7755 11.1415 31.4105 10.7758Z" fill="white"/>
<path fill-rule="evenodd" clip-rule="evenodd" d="M33.0023 18.5006C31.2326 14.9439 32.4846 11.7512 32.9865 10.7266C36.6626 10.8611 39.9069 12.7385 41.93 15.5627C40.2784 15.8004 37.3699 16.6407 35.2435 19.5674C34.6473 18.988 33.8675 18.5998 33.0023 18.5006Z" fill="white"/>
<path fill-rule="evenodd" clip-rule="evenodd" d="M36.1111 20.8252C38.2839 17.4762 41.6222 16.9832 42.7653 16.9139C43.6269 18.5453 44.1162 20.4059 44.1162 22.38C44.1162 24.0824 43.7526 25.7015 43.0994 27.1611C42.0696 25.8367 39.894 23.7149 36.3178 23.319C36.3918 23.0183 36.4312 22.7037 36.4312 22.3795C36.4312 21.8273 36.317 21.3015 36.1111 20.8252Z" fill="white"/>
<path fill-rule="evenodd" clip-rule="evenodd" d="M35.6684 24.7057C39.5976 24.9326 41.7154 27.6141 42.3487 28.5707C40.4975 31.541 37.3571 33.6146 33.7266 33.9829C34.348 32.422 35.0834 29.4571 33.6357 26.1315C34.4583 25.8913 35.1693 25.3828 35.6684 24.7057Z" fill="white"/>
<path fill-rule="evenodd" clip-rule="evenodd" d="M32.1264 26.2589C33.9112 29.8385 32.662 33.0044 32.1501 34.0334C28.4709 33.9021 25.2237 32.0249 23.1984 29.1994C24.8509 28.9611 27.7591 28.1198 29.8864 25.1922C30.4829 25.7716 31.2623 26.1599 32.1264 26.2589Z" fill="white"/>
<path fill-rule="evenodd" clip-rule="evenodd" d="M29.0201 23.9386C26.8453 27.29 23.5037 27.7786 22.363 27.8491C21.5006 26.2167 21.0105 24.3549 21.0105 22.3801C21.0105 20.6744 21.3753 19.0531 22.0303 17.5916C23.0573 18.9149 25.2315 21.0411 28.8092 21.4397C28.7351 21.741 28.6955 22.056 28.6955 22.3795C28.6965 22.9336 28.8122 23.4609 29.0201 23.9386Z" fill="white"/>
<path fill-rule="evenodd" clip-rule="evenodd" d="M31.2313 4.24913C31.3643 4.23939 31.4972 4.23058 31.6311 4.22362L31.6659 4.22199C31.7924 4.2155 31.9194 4.21109 32.0467 4.20715L32.1494 4.20483C32.2871 4.20135 32.4251 4.19926 32.5634 4.19926C42.4954 4.19926 50.5738 12.354 50.5738 22.3799C50.5738 32.4057 42.4954 40.5645 32.5634 40.5645C22.6314 40.5645 14.5488 32.4057 14.5488 22.3799C14.5488 13.7692 20.5109 6.53876 28.4855 4.66916L28.5094 4.66359C28.6463 4.63182 28.7839 4.60167 28.9216 4.57291L28.9808 4.56108C29.0926 4.53812 29.2048 4.51632 29.3171 4.49567L29.4214 4.47665C29.5486 4.45393 29.676 4.43259 29.8041 4.41241L29.8899 4.39988L30.1929 4.35675L30.3331 4.33866C30.4591 4.32288 30.5855 4.30804 30.7121 4.29482L30.7716 4.28925L31.116 4.25817L31.2313 4.24913ZM19.5889 22.3799C19.5889 24.7564 20.2198 26.9867 21.3201 28.9102C21.3314 28.9318 21.3438 28.9528 21.3569 28.9731C23.6072 32.8549 27.7787 35.4688 32.5431 35.4763L32.5491 35.4768H32.5555H32.5615H32.5634H32.5676H32.5788L32.5898 35.4763C37.3484 35.4668 41.5116 32.8599 43.7619 28.9882C43.7893 28.9503 43.8127 28.9098 43.8319 28.8672C44.9171 26.9537 45.538 24.739 45.538 22.3799C45.538 20.0102 44.912 17.7858 43.8176 15.8666L43.8168 15.8652C43.8021 15.8355 43.7854 15.807 43.7668 15.7798C41.5135 11.8961 37.3363 9.28297 32.5634 9.28297C25.4076 9.28297 19.5889 15.1566 19.5889 22.3799Z" fill="white"/>
<path fill-rule="evenodd" clip-rule="evenodd" d="M15.5897 12.8284H7.13904V4.19929H25.2552C21.218 5.84815 17.786 8.85555 15.5897 12.8284Z" fill="white"/>
<path fill-rule="evenodd" clip-rule="evenodd" d="M5.71282 3.48164V13.5458C5.71282 13.5723 5.71407 13.5984 5.71686 13.624V14.8315C5.71686 15.246 5.38267 15.5876 4.96811 15.5876H2.17077C1.76025 15.5876 1.4214 15.2504 1.4214 14.8315V2.19146C1.4214 1.77706 1.7559 1.43532 2.17077 1.43532H4.96811C5.37832 1.43532 5.71686 1.77267 5.71686 2.19146V3.4024C5.71407 3.4284 5.71282 3.45502 5.71282 3.48164Z" fill="white"/>
<path fill-rule="evenodd" clip-rule="evenodd" d="M30.1174 22.3837C30.1174 21.9457 30.2314 21.5338 30.4306 21.1769L30.4648 21.1182C30.893 20.3977 31.6746 19.9149 32.5634 19.9149H32.5676C33.4502 19.9163 34.2238 20.3911 34.6527 21.1004C34.6677 21.1314 34.685 21.1614 34.7045 21.1901C34.8986 21.5438 35.0094 21.9511 35.0094 22.3837C35.0094 23.7215 33.9529 24.8123 32.6369 24.8516C32.5893 24.847 32.5412 24.847 32.493 24.8516C31.6432 24.8274 30.9012 24.3643 30.4814 23.6794C30.4626 23.6369 30.4393 23.5964 30.4119 23.5584C30.2242 23.2093 30.1174 22.8087 30.1174 22.3837Z" fill="white"/>
</svg>
