<svg width="24" height="24" viewBox="0 0 24 24" fill="none" xmlns="http://www.w3.org/2000/svg">
<rect x="4" y="4.00012" width="16" height="16" fill="white"/>
<path d="M16.19 2.00012H7.81C4.17 2.00012 2 4.17012 2 7.81012V16.1801C2 19.8301 4.17 22.0001 7.81 22.0001H16.18C19.82 22.0001 21.99 19.8301 21.99 16.1901V7.81012C22 4.17012 19.83 2.00012 16.19 2.00012ZM19.35 8.84012C19.31 8.93012 19.26 9.01012 19.19 9.08012L17.39 10.8801C17.24 11.0301 17.05 11.1001 16.86 11.1001C16.67 11.1001 16.48 11.0301 16.33 10.8801C16.04 10.5901 16.04 10.1101 16.33 9.82012L16.85 9.30012H16.7C14.6 9.30012 12.88 11.0101 12.88 13.1101V15.0701V17.2401C12.88 17.6501 12.54 17.9901 12.13 17.9901C11.72 17.9901 11.38 17.6501 11.38 17.2401V15.0701V13.1101C11.38 11.0101 9.67 9.30012 7.57 9.30012H7.15L7.67 9.82012C7.96 10.1101 7.96 10.5901 7.67 10.8801C7.52 11.0301 7.33 11.1001 7.14 11.1001C6.95 11.1001 6.76 11.0301 6.61 10.8801L4.81 9.08012C4.52 8.79012 4.52 8.31012 4.81 8.02012L6.61 6.22012C6.9 5.93012 7.38 5.93012 7.67 6.22012C7.96 6.51012 7.96 6.99012 7.67 7.28012L7.15 7.80012H7.58C9.53 7.80012 11.22 8.87012 12.14 10.4401C13.06 8.87012 14.75 7.80012 16.71 7.80012H16.86L16.34 7.28012C16.05 6.99012 16.05 6.51012 16.34 6.22012C16.63 5.93012 17.11 5.93012 17.4 6.22012L19.2 8.02012C19.27 8.09012 19.32 8.17012 19.36 8.26012C19.43 8.45012 19.43 8.66012 19.35 8.84012Z" fill="#50ACF2"/>
</svg>
