<svg width="16" height="24" viewBox="0 0 16 24" fill="none" xmlns="http://www.w3.org/2000/svg">
<path d="M10.6484 21.4531H4.71163C4.45142 21.4531 4.24048 21.2419 4.24048 20.9815C4.24048 20.721 4.45142 20.5098 4.71163 20.5098H10.6484C10.9086 20.5098 11.1195 20.721 11.1195 20.9815C11.1195 21.2419 10.9086 21.4531 10.6484 21.4531Z" fill="#A5D64B"/>
<path d="M10.6484 22.7266H4.71163C4.45142 22.7266 4.24048 22.5154 4.24048 22.2549C4.24048 21.9944 4.45142 21.7832 4.71163 21.7832H10.6484C10.9086 21.7832 11.1195 21.9944 11.1195 22.2549C11.1195 22.5154 10.9086 22.7266 10.6484 22.7266Z" fill="#A5D64B"/>
<path d="M9.37617 24.0001H5.98377C5.72351 24.0001 5.51257 23.7889 5.51257 23.5284C5.51257 23.268 5.72351 23.0568 5.98377 23.0568H9.37617C9.63634 23.0568 9.84729 23.268 9.84729 23.5284C9.84729 23.7889 9.63634 24.0001 9.37617 24.0001Z" fill="#A5D64B"/>
<path d="M11.1107 10.7511C12.0343 9.98891 12.455 8.79593 12.3874 7.48735C11.1173 7.17105 9.86709 7.35669 8.94356 8.11883C8.01983 8.88098 7.59927 10.0739 7.66679 11.3825C8.93705 11.6987 10.187 11.5132 11.1107 10.7511Z" fill="white"/>
<path d="M4.23597 10.7513C3.31236 9.98915 2.89168 8.79618 2.95929 7.48759C4.22938 7.1713 5.47962 7.35693 6.40314 8.11908C7.32688 8.88122 7.74744 10.0742 7.67991 11.3827C6.40965 11.6989 5.15975 11.5134 4.23597 10.7513Z" fill="white"/>
<path d="M12.3697 13.6976C11.355 15.2095 10.3078 16.7699 10.1884 19.2362L8.15114 19.2362V11.9546C8.3786 11.9853 8.60416 12.0013 8.82594 12.0013C9.81374 12.0013 10.7076 11.6949 11.4104 11.115C12.4224 10.2799 12.9365 8.98295 12.858 7.463C12.8473 7.25566 12.7024 7.07976 12.5012 7.02961C12.0717 6.92266 11.6435 6.86843 11.2284 6.86843C10.2403 6.86843 9.34658 7.17495 8.64388 7.75484C8.23827 8.08949 7.91284 8.49854 7.67331 8.96629C7.43377 8.49871 7.10842 8.08978 6.70294 7.75517C6.0002 7.17528 5.10654 6.86876 4.11837 6.86876C3.70329 6.86876 3.2751 6.92299 2.8456 7.02994C2.64434 7.08005 2.49949 7.25599 2.48877 7.46328C2.41029 8.98328 2.92433 10.2803 3.93635 11.1154C4.63917 11.6951 5.53283 12.0017 6.52083 12.0017C6.74685 12.0017 6.97687 11.985 7.20882 11.9531V19.2362L5.17151 19.2362C5.05212 16.7699 4.00495 15.2095 2.99025 13.6976C1.93707 12.1284 0.942312 10.6461 0.942312 8.15177C0.942312 4.5697 3.25665 0.94347 7.67998 0.94347C12.1033 0.94347 14.4176 4.5697 14.4176 8.15177C14.4176 10.6461 13.4228 12.1284 12.3697 13.6976Z" fill="#A5D64B"/>
<path fill-rule="evenodd" clip-rule="evenodd" d="M10.1884 19.2362C10.3078 16.7699 11.355 15.2095 12.3697 13.6976C13.4228 12.1284 14.4176 10.6461 14.4176 8.15177C14.4176 4.5697 12.1033 0.94347 7.67998 0.94347C3.25665 0.94347 0.942312 4.5697 0.942312 8.15177C0.942312 10.6461 1.93707 12.1284 2.99025 13.6976C4.00495 15.2095 5.05212 16.7699 5.17151 19.2362L7.20882 19.2362H8.15114L10.1884 19.2362ZM7.67998 0.000139236C9.95538 0.000139236 11.9102 0.860735 13.3332 2.48891C14.6402 3.98433 15.36 5.99546 15.36 8.15177C15.36 10.9336 14.2375 12.6062 13.1518 14.2237C12.1067 15.781 11.1195 17.252 11.1195 19.7078C11.1195 19.9683 10.9085 20.1795 10.6484 20.1795L4.7116 20.1796C4.58669 20.1796 4.4668 20.1299 4.37847 20.0415C4.29009 19.953 4.24045 19.833 4.24045 19.7079C4.24045 17.252 3.25323 15.781 2.20808 14.2237C1.12252 12.6062 0 10.9336 0 8.15177C0 5.99546 0.719712 3.98433 2.02672 2.48891C3.44971 0.860735 5.40458 0.000139236 7.67998 0.000139236Z" fill="#A5D64B"/>
</svg>
