<svg width="24" height="24" viewBox="0 0 24 24" fill="none" xmlns="http://www.w3.org/2000/svg">
<path d="M12.9512 0.77544C13.3479 1.2542 14.0386 1.36362 14.5638 1.03083C15.2179 0.616331 16.0877 0.898952 16.3734 1.61876C16.6027 2.19667 17.2256 2.51418 17.828 2.36008C18.5783 2.168 19.3182 2.70554 19.3674 3.47839C19.4068 4.09882 19.9013 4.59335 20.5219 4.63276C21.2946 4.68198 21.8321 5.42186 21.6403 6.17201C21.4859 6.77453 21.8034 7.39735 22.3813 7.62669C23.1011 7.91242 23.3838 8.78227 22.9693 9.43638C22.6367 9.96149 22.7459 10.6522 23.2247 11.049C23.821 11.543 23.821 12.4575 23.2247 12.9516C22.7459 13.3482 22.6367 14.0388 22.9693 14.5642C23.3838 15.2183 23.1011 16.088 22.3813 16.3737C21.8034 16.603 21.4859 17.226 21.6403 17.8283C21.8321 18.5786 21.2946 19.3184 20.5219 19.3676C19.9013 19.4071 19.4068 19.9017 19.3674 20.5221C19.3182 21.2949 18.5783 21.8325 17.828 21.6405C17.2256 21.4863 16.6027 21.8038 16.3734 22.3817C16.0877 23.1014 15.2179 23.384 14.5638 22.9697C14.0386 22.6369 13.3479 22.7464 12.9512 23.2251C12.4572 23.8213 11.5426 23.8213 11.0485 23.2251C10.6518 22.7464 9.96125 22.6369 9.43602 22.9697C8.78186 23.384 7.91211 23.1014 7.62648 22.3817C7.39711 21.8038 6.7741 21.4863 6.17178 21.6405C5.42157 21.8325 4.68174 21.2949 4.63245 20.5221C4.59292 19.9017 4.09848 19.4071 3.47803 19.3676C2.70523 19.3184 2.16769 18.5786 2.35965 17.8283C2.51377 17.226 2.19634 16.603 1.61846 16.3737C0.898691 16.088 0.616093 15.2183 1.03049 14.5642C1.36321 14.0388 1.2538 13.3482 0.775107 12.9516C0.178806 12.4575 0.178806 11.543 0.775107 11.049C1.2538 10.6522 1.36321 9.96149 1.03049 9.43638C0.616093 8.78227 0.898691 7.91242 1.61846 7.62669C2.19634 7.39735 2.51377 6.77453 2.35965 6.17201C2.16769 5.42186 2.70523 4.68198 3.47803 4.63276C4.09848 4.59335 4.59292 4.09882 4.63245 3.47839C4.68174 2.70554 5.42157 2.168 6.17178 2.36008C6.7741 2.51418 7.39711 2.19667 7.62648 1.61876C7.91211 0.898952 8.78186 0.616331 9.43602 1.03083C9.96125 1.36362 10.6518 1.2542 11.0485 0.77544C11.5426 0.17914 12.4572 0.17914 12.9512 0.77544Z" fill="#F26B2C"/>
<path d="M10.0951 22.4507C10.5479 22.4507 10.995 22.6461 11.3012 23.0157C11.4742 23.2243 11.7289 23.3441 12 23.3441C12.2712 23.3441 12.5259 23.2243 12.6989 23.0157C13.1994 22.4116 14.0767 22.2725 14.7394 22.6924C14.9684 22.8375 15.2477 22.8726 15.5055 22.7889C15.7634 22.7051 15.9687 22.5125 16.0686 22.2606C16.3581 21.5312 17.1494 21.1281 17.9095 21.3226C18.172 21.3899 18.4486 21.337 18.668 21.1777C18.8872 21.0182 19.023 20.7716 19.0403 20.501C19.0901 19.7182 19.7182 19.09 20.501 19.0402C20.7717 19.023 21.0182 18.8873 21.1776 18.668C21.3369 18.4486 21.39 18.1721 21.3225 17.9095C21.1281 17.1494 21.5313 16.3581 22.2607 16.0686C22.5125 15.9686 22.7052 15.7634 22.789 15.5055C22.8727 15.2477 22.8374 14.9684 22.6925 14.7394C22.2725 14.0766 22.4114 13.1993 23.0158 12.6989C23.2243 12.5259 23.3441 12.2713 23.3441 12.0001C23.3441 11.7289 23.2243 11.4742 23.0158 11.3012C22.4114 10.8005 22.2725 9.92332 22.6925 9.26068C22.8374 9.03148 22.8727 8.75236 22.789 8.49459C22.7052 8.23659 22.5125 8.03139 22.2607 7.93131C21.5313 7.64187 21.1281 6.85058 21.3225 6.0905C21.39 5.82793 21.3369 5.55145 21.1776 5.33209C21.0182 5.11273 20.7717 4.97713 20.501 4.95985C19.7182 4.90993 19.0901 4.28185 19.0403 3.49896C19.023 3.22848 18.8872 2.98176 18.668 2.82239C18.4486 2.66303 18.172 2.61023 17.9095 2.67743C17.1494 2.87207 16.3581 2.46863 16.0686 1.7395C15.9687 1.4875 15.7634 1.29502 15.5056 1.21102C15.2477 1.12726 14.9685 1.16254 14.7394 1.3075C14.0767 1.7275 13.1994 1.58854 12.6989 0.984459C12.5259 0.775658 12.2712 0.655895 12 0.655895C11.7289 0.655895 11.4742 0.775658 11.3012 0.984459C10.995 1.35382 10.5478 1.54943 10.0951 1.54943C9.80764 1.54943 9.51803 1.4707 9.26063 1.3075C9.0316 1.16254 8.75238 1.12726 8.49452 1.21102C8.23667 1.29502 8.03139 1.4875 7.93141 1.7395C7.69097 2.34527 7.104 2.72615 6.47647 2.72615C6.34862 2.72615 6.21921 2.71031 6.09059 2.67743C5.82796 2.61023 5.55148 2.66303 5.33212 2.82239C5.1128 2.98176 4.97711 3.22848 4.95985 3.49896C4.90998 4.28185 4.28192 4.90993 3.49896 4.95985C3.22841 4.97713 2.98183 5.11273 2.82247 5.33209C2.66311 5.55145 2.61026 5.82793 2.67746 6.0905C2.87196 6.85058 2.46873 7.64187 1.73953 7.93131C1.48751 8.03139 1.29493 8.23659 1.21114 8.49459C1.12736 8.75236 1.16252 9.03148 1.3076 9.26068C1.72744 9.92332 1.5885 10.8005 0.984415 11.3012C0.775662 11.4742 0.655925 11.7289 0.655925 12.0001C0.655925 12.2713 0.775662 12.5259 0.984415 12.6989C1.5885 13.1993 1.72746 14.0766 1.3076 14.7394C1.16252 14.9684 1.12736 15.2477 1.21114 15.5055C1.29493 15.7634 1.48751 15.9686 1.73953 16.0686C2.46873 16.3581 2.87196 17.1494 2.67746 17.9095C2.61026 18.1721 2.66311 18.4486 2.82247 18.668C2.98183 18.8873 3.22841 19.023 3.49896 19.0402C4.28192 19.09 4.90995 19.7182 4.95985 20.501C4.97711 20.7716 5.11278 21.0182 5.33212 21.1777C5.55148 21.337 5.82794 21.3899 6.09059 21.3226C6.85058 21.1281 7.64201 21.5314 7.93141 22.2606C8.03139 22.5125 8.23667 22.7051 8.49452 22.7889C8.75238 22.8726 9.03162 22.8375 9.26063 22.6924C9.51796 22.5294 9.80772 22.4507 10.0951 22.4507ZM12.0001 24C11.533 24 11.0942 23.7938 10.7961 23.4341C10.5056 23.0836 9.99636 23.0029 9.61168 23.2466C9.21707 23.4964 8.73601 23.5571 8.29182 23.4126C7.8476 23.2684 7.49405 22.9366 7.32176 22.5026C7.15375 22.0793 6.69437 21.8451 6.25317 21.9581C5.80067 22.0739 5.32444 21.9828 4.94658 21.7082C4.56872 21.4337 4.33498 21.0089 4.30525 20.5428C4.2763 20.0884 3.91174 19.7237 3.45725 19.6949C2.99112 19.6651 2.56634 19.4313 2.2918 19.0534C2.01726 18.6756 1.92623 18.1994 2.04201 17.7469C2.1549 17.3057 1.92085 16.8463 1.49756 16.6783C1.06342 16.506 0.731669 16.1524 0.587332 15.7083C0.442995 15.264 0.503548 14.7829 0.753486 14.3883C0.997231 14.0036 0.916543 13.4945 0.565924 13.2039C0.206282 12.9058 0 12.4671 0 12.0001C0 11.533 0.206258 11.0941 0.565924 10.7962C0.916543 10.5056 0.997207 9.99628 0.75351 9.61156C0.503548 9.217 0.442995 8.73604 0.587332 8.29179C0.731669 7.84755 1.06342 7.49403 1.49756 7.3217C1.92085 7.1537 2.1549 6.69434 2.04201 6.25322C1.92623 5.80058 2.01726 5.32441 2.2918 4.94665C2.56636 4.56865 2.99112 4.33488 3.45725 4.30512C3.91174 4.27632 4.2763 3.91176 4.30525 3.4572C4.33498 2.99112 4.56874 2.56631 4.94658 2.29175C5.32446 2.01719 5.8007 1.92623 6.25317 2.04191C6.69441 2.15495 7.15375 1.92071 7.32173 1.49759C7.49403 1.06342 7.8476 0.731737 8.29182 0.587257C8.73604 0.443016 9.2171 0.503498 9.61166 0.75358C9.99638 0.997181 10.5056 0.916538 10.7961 0.565895C11.0941 0.206373 11.533 -2.67029e-05 12 -2.67029e-05C12.0001 -2.67029e-05 12 -2.67029e-05 12.0001 -2.67029e-05C12.4671 -2.67029e-05 12.9059 0.206373 13.2039 0.565895C13.4945 0.916538 14.0037 0.997181 14.3884 0.75358C14.783 0.503498 15.264 0.443016 15.7083 0.587257C16.1524 0.731737 16.5061 1.06342 16.6784 1.49759C16.8463 1.92071 17.3056 2.15495 17.7469 2.04191C18.1994 1.92623 18.6756 2.01719 19.0535 2.29175C19.4313 2.56631 19.6651 2.99112 19.6948 3.4572C19.7238 3.91176 20.0885 4.27632 20.5428 4.30512C21.0091 4.33488 21.4337 4.56865 21.7082 4.94665C21.9828 5.32441 22.0737 5.80058 21.9581 6.25322C21.845 6.69434 22.079 7.1537 22.5024 7.3217C22.9368 7.49403 23.2685 7.84755 23.4127 8.29179C23.5572 8.73604 23.4965 9.217 23.2466 9.61156C23.0028 9.99628 23.0834 10.5056 23.4341 10.7962C23.7938 11.0941 24 11.533 24 12.0001C24 12.4671 23.7938 12.9058 23.4341 13.2039C23.0834 13.4945 23.0028 14.0036 23.2466 14.3883C23.4965 14.7829 23.5572 15.264 23.4127 15.7082C23.2685 16.1524 22.9368 16.506 22.5024 16.6783C22.079 16.8463 21.845 17.3057 21.9581 17.7469C22.0737 18.1994 21.9828 18.6756 21.7082 19.0534C21.4337 19.4313 21.0091 19.6651 20.5428 19.6949C20.0885 19.7237 19.7238 20.0884 19.6948 20.5428C19.6651 21.0089 19.4313 21.4337 19.0535 21.7082C18.6756 21.9828 18.1994 22.0737 17.7469 21.9581C17.3058 21.8453 16.8463 22.0793 16.6784 22.5024C16.5061 22.9366 16.1524 23.2684 15.7082 23.4126C15.264 23.5571 14.783 23.4964 14.3884 23.2466C14.0037 23.0029 13.4945 23.0836 13.2039 23.4341C12.9059 23.7938 12.4671 24 12.0001 24Z" fill="white"/>
<path d="M11.0019 16.87C10.7492 16.87 10.5053 16.7727 10.3217 16.5969L7.12104 13.534C6.72844 13.1584 6.71473 12.5357 7.09042 12.143C7.4661 11.7504 8.08889 11.7368 8.48151 12.1124L10.9154 14.4416L15.4086 8.97249C15.7536 8.55267 16.3735 8.49196 16.7933 8.83687C17.2134 9.18179 17.2741 9.80186 16.929 10.2217L11.7622 16.5107C11.5883 16.7222 11.3341 16.8519 11.0608 16.8681C11.0411 16.8694 11.0214 16.87 11.0019 16.87Z" fill="white"/>
<path d="M12 3.841C7.5011 3.841 3.84091 7.50131 3.84091 12.0003C3.84091 16.4992 7.5011 20.1593 12 20.1593C16.4991 20.1593 20.1592 16.4992 20.1592 12.0003C20.1592 7.50131 16.4991 3.841 12 3.841ZM12 20.8152C10.8102 20.8152 9.65573 20.5822 8.56875 20.1225C7.519 19.6784 6.57633 19.0429 5.76686 18.2334C4.95742 17.4239 4.32187 16.4811 3.87786 15.4315C3.41811 14.3444 3.185 13.1901 3.185 12.0003C3.185 10.8102 3.41811 9.65588 3.87786 8.56879C4.32187 7.51917 4.95742 6.57648 5.76686 5.76695C6.57633 4.95763 7.519 4.32204 8.56875 3.87803C9.65573 3.41815 10.8102 3.18513 12 3.18513C13.1899 3.18513 14.3444 3.41815 15.4314 3.87803C16.4812 4.32204 17.4237 4.95763 18.2331 5.76695C19.0428 6.57648 19.6782 7.51917 20.1222 8.56879C20.5819 9.65588 20.8151 10.8102 20.8151 12.0003C20.8151 13.1901 20.5819 14.3444 20.1222 15.4315C19.6782 16.4811 19.0428 17.4239 18.2331 18.2334C17.4237 19.0429 16.4812 19.6784 15.4314 20.1225C14.3444 20.5822 13.1899 20.8152 12 20.8152Z" fill="white"/>
</svg>
