<svg width="28" height="22" viewBox="0 0 28 22" fill="none" xmlns="http://www.w3.org/2000/svg">
<path d="M19.8759 0H8.13805C3.03951 0 0 2.387 0 6.391V15.598C0 19.613 3.03951 22 8.13805 22H19.8619C24.9604 22 28 19.613 28 15.609V6.391C28.014 2.387 24.9744 0 19.8759 0ZM17.9149 11.583L12.9705 15.466C12.7604 15.631 12.4942 15.708 12.2281 15.708C11.962 15.708 11.6958 15.631 11.4857 15.466C11.0795 15.147 11.0795 14.619 11.4857 14.3L15.6878 11L11.4857 7.7C11.0795 7.381 11.0795 6.853 11.4857 6.534C11.8919 6.215 12.5643 6.215 12.9705 6.534L17.9149 10.417C18.3351 10.736 18.3351 11.264 17.9149 11.583Z" fill="#DEC052"/>
</svg>
