<svg width="148" height="58" viewBox="0 0 148 58" fill="none" xmlns="http://www.w3.org/2000/svg">
<path d="M14.2236 7.12451L3.81934 35.5864H0.731445L11.8066 7.12451H14.2236Z" stroke="#FCFCFC" stroke-opacity="0.9" stroke-linejoin="round"/>
<path d="M21.1719 7.12451L10.7676 35.5864H7.67972L18.7549 7.12451H21.1719Z" stroke="#C9CC3A" stroke-linejoin="round"/>
<path d="M12.1801 7.12451L22.5844 35.5864H25.6723L14.5971 7.12451H12.1801Z" stroke="#FCFCFC" stroke-opacity="0.9" stroke-linejoin="round"/>
<path d="M38.2161 7.12451C38.8975 7.12463 39.4534 7.67947 39.4534 8.36768C39.4534 9.05595 38.8976 9.61072 38.2161 9.61084C37.5346 9.61084 36.9788 9.05602 36.9788 8.36768C36.9789 7.6794 37.5346 7.12451 38.2161 7.12451Z" stroke="#FCFCFC" stroke-opacity="0.9"/>
<path d="M51.0705 32.9253C51.7519 32.9254 52.3077 33.4803 52.3078 34.1685C52.3078 34.8567 51.7519 35.4115 51.0705 35.4116C50.3889 35.4116 49.8332 34.8568 49.8332 34.1685C49.8332 33.4802 50.389 32.9253 51.0705 32.9253Z" stroke="#FCFCFC" stroke-opacity="0.9"/>
<path d="M146.263 32.9253C146.944 32.9254 147.5 33.4803 147.5 34.1685C147.5 34.8567 146.944 35.4115 146.263 35.4116C145.581 35.4116 145.026 34.8568 145.026 34.1685C145.026 33.4802 145.581 32.9253 146.263 32.9253Z" stroke="#FCFCFC" stroke-opacity="0.9"/>
<path d="M35.9576 12.7031C37.1188 12.7031 38.063 13.6486 38.063 14.8184C38.0629 15.988 37.1187 16.9326 35.9576 16.9326C34.7965 16.9325 33.8522 15.9879 33.8521 14.8184C33.8521 13.6487 34.7964 12.7032 35.9576 12.7031Z" stroke="#FCFCFC" stroke-opacity="0.9"/>
<path d="M34.2208 19.3276C36.3414 19.3277 38.0636 21.0535 38.0636 23.186C38.0635 25.3185 36.3413 27.0444 34.2208 27.0444C32.1002 27.0444 30.3781 25.3185 30.378 23.186C30.378 21.0535 32.1002 19.3276 34.2208 19.3276Z" stroke="#FCFCFC" stroke-opacity="0.9"/>
<path d="M44.2954 31.1821C45.4566 31.1821 46.4008 32.1276 46.4008 33.2974C46.4007 34.467 45.4565 35.4116 44.2954 35.4116C43.1343 35.4115 42.19 34.4669 42.1899 33.2974C42.1899 32.1277 43.1342 31.1822 44.2954 31.1821Z" stroke="#FCFCFC" stroke-opacity="0.9"/>
<path d="M139.488 31.1821C140.649 31.1821 141.593 32.1276 141.593 33.2974C141.593 34.467 140.649 35.4116 139.488 35.4116C138.327 35.4115 137.383 34.4669 137.382 33.2974C137.382 32.1277 138.327 31.1822 139.488 31.1821Z" stroke="#FCFCFC" stroke-opacity="0.9"/>
<path d="M35.7844 29.439C37.4251 29.4392 38.7579 30.7744 38.7581 32.4253C38.7581 34.0763 37.4252 35.4124 35.7844 35.4126C34.1435 35.4126 32.8098 34.0764 32.8098 32.4253C32.81 30.7743 34.1436 29.439 35.7844 29.439Z" stroke="#FCFCFC" stroke-opacity="0.9"/>
<path d="M37.5211 9.7627L36.4788 12.3776" stroke="#FCFCFC" stroke-opacity="0.9"/>
<path d="M35.2628 17.0845L34.7417 19.1764" stroke="#FCFCFC" stroke-opacity="0.9"/>
<path d="M38.9107 32.7739L42.0374 33.2969" stroke="#FCFCFC" stroke-opacity="0.9"/>
<path d="M46.5539 34.1689L49.6806 34.6919" stroke="#FCFCFC" stroke-opacity="0.9"/>
<path d="M141.746 34.1689L144.873 34.6919" stroke="#FCFCFC" stroke-opacity="0.9"/>
<path d="M34.7417 27.1953L35.2628 29.1129" stroke="#FCFCFC" stroke-opacity="0.9"/>
<path d="M133.409 7.12451C134.09 7.12463 134.646 7.67947 134.646 8.36768C134.646 9.05595 134.09 9.61072 133.409 9.61084C132.727 9.61084 132.172 9.05602 132.172 8.36768C132.172 7.6794 132.727 7.12451 133.409 7.12451Z" stroke="#FCFCFC" stroke-opacity="0.9"/>
<path d="M131.15 12.7031C132.311 12.7031 133.256 13.6486 133.256 14.8184C133.255 15.988 132.311 16.9326 131.15 16.9326C129.989 16.9325 129.045 15.9879 129.045 14.8184C129.045 13.6487 129.989 12.7032 131.15 12.7031Z" stroke="#FCFCFC" stroke-opacity="0.9"/>
<path d="M129.413 19.3276C131.534 19.3277 133.256 21.0535 133.256 23.186C133.256 25.3185 131.534 27.0444 129.413 27.0444C127.293 27.0444 125.571 25.3185 125.571 23.186C125.571 21.0535 127.293 19.3276 129.413 19.3276Z" stroke="#FCFCFC" stroke-opacity="0.9"/>
<path d="M130.977 29.439C132.618 29.4392 133.95 30.7744 133.951 32.4253C133.951 34.0763 132.618 35.4124 130.977 35.4126C129.336 35.4126 128.002 34.0764 128.002 32.4253C128.002 30.7743 129.336 29.439 130.977 29.439Z" stroke="#FCFCFC" stroke-opacity="0.9"/>
<path d="M132.714 9.7627L131.672 12.3776" stroke="#FCFCFC" stroke-opacity="0.9"/>
<path d="M130.455 17.0845L129.934 19.1764" stroke="#FCFCFC" stroke-opacity="0.9"/>
<path d="M134.104 32.7739L137.23 33.2969" stroke="#FCFCFC" stroke-opacity="0.9"/>
<path d="M129.934 27.1953L130.455 29.1129" stroke="#FCFCFC" stroke-opacity="0.9"/>
<path d="M75.5633 14.295L64.0985 7.49609L52.1126 14.295V27.8927L64.0985 35.3889L75.0421 28.7644" stroke="#FCFCFC" stroke-opacity="0.9" stroke-linejoin="round"/>
<path d="M56.2817 17.433L63.7512 13.0747L71.5681 17.433" stroke="#FCFCFC" stroke-opacity="0.9" stroke-linejoin="round"/>
<path d="M95.8759 36.0418C95.3181 36.0418 94.9555 35.1772 94.7881 33.4478L94.7463 33.2804C94.1605 30.1007 93.8677 26.9209 93.8677 23.7411H87.0897C87.0897 24.6894 87.1036 25.6378 87.1315 26.5862C87.1594 27.5066 87.1734 28.441 87.1734 29.3894C87.1734 30.5888 87.1315 31.7742 87.0479 32.9457V33.2386C87.0479 34.7727 86.7689 35.6932 86.2111 36L85.96 36.0418C85.5416 36.0418 85.2069 35.5537 84.9559 34.5775C84.0354 31.2024 83.5752 27.8832 83.5752 24.6197L83.1986 24.7034C82.6408 24.8986 82.0969 24.9963 81.5669 24.9963C81.1764 24.9963 80.8417 24.8847 80.5628 24.6616C80.1444 24.3826 79.9352 23.8806 79.9352 23.1553C79.9352 22.5696 80.1165 22.1651 80.4791 21.942C80.8417 21.7189 81.2322 21.5515 81.6506 21.4399C82.0969 21.3284 82.4734 21.2028 82.7802 21.0634C83.115 20.896 83.3521 20.645 83.4915 20.3103C83.6589 19.7245 83.7426 19.069 83.7426 18.3438V17.7581C83.7426 17.3397 83.7565 16.9492 83.7844 16.5866C83.8123 16.3634 83.8262 16.1263 83.8262 15.8753C83.9657 12.6955 84.3701 10.2688 85.0396 8.59527C85.5137 7.84217 86.0995 7.46561 86.7968 7.46561C87.1315 7.46561 87.4384 7.56324 87.7173 7.75849C87.9962 7.92585 88.1915 8.20477 88.303 8.59527C88.4146 8.95788 88.4704 9.33443 88.4704 9.72493C88.4704 10.6733 88.2891 11.6914 87.9265 12.7792C87.7591 13.5044 87.6336 14.1599 87.5499 14.7456L87.0897 20.0174C89.5164 20.0174 91.7757 20.3521 93.8677 21.0215C93.9513 19.7943 93.9932 18.5112 93.9932 17.1723V16.1682C93.9932 13.7973 94.2442 11.5519 94.7463 9.43206C94.8857 9.01367 95.1228 8.6929 95.4575 8.46975C95.7923 8.21872 96.1409 8.0932 96.5035 8.0932C96.8661 8.0932 97.2009 8.20477 97.5077 8.42792C97.8145 8.65106 98.0097 8.98577 98.0934 9.43206C98.205 9.85045 98.2608 10.2967 98.2608 10.7709C98.2608 11.7193 98.1632 12.6955 97.9679 13.6997C97.7169 15.4569 97.5914 18.0231 97.5914 21.3981C97.5914 24.2432 97.4798 27.0743 97.2566 29.8915C97.2287 30.1146 97.2148 30.6167 97.2148 31.3977C97.2427 31.7045 97.2566 32.0253 97.2566 32.36C97.2566 34.3125 96.894 35.5119 96.1688 35.9582C96.0572 36.0139 95.9596 36.0418 95.8759 36.0418Z" fill="#FCFCFC" fill-opacity="0.9"/>
<path d="M112.426 36.251C111.366 36.251 110.432 35.9303 109.623 35.2887C108.842 34.6193 108.186 33.8104 107.656 32.8621C107.126 31.8858 106.708 30.9235 106.401 29.9751C105.453 27.1022 104.979 24.1176 104.979 21.0215C104.979 18.0928 105.522 15.3175 106.61 12.6955C107.838 9.90624 109.455 8.23267 111.464 7.67481C111.715 7.61902 111.938 7.59113 112.133 7.59113C112.496 7.59113 112.789 7.66086 113.012 7.80033C113.263 7.93979 113.486 8.10715 113.681 8.3024C114.183 8.77658 114.978 9.11129 116.066 9.30654C116.512 9.36233 116.945 9.45995 117.363 9.59942C117.781 9.73888 118.2 9.98992 118.618 10.3525C119.315 11.022 119.831 11.8448 120.166 12.821C120.808 14.8014 121.128 17.1444 121.128 19.85C121.128 23.0298 120.571 26.1259 119.455 29.1384C118.06 33.0991 116.066 35.4282 113.472 36.1255C113.109 36.2092 112.761 36.251 112.426 36.251ZM112.468 32.2763C113.807 32.0253 114.978 30.5888 115.982 27.9669C117.349 24.7871 118.032 21.5236 118.032 18.1765C118.032 17.3118 117.991 16.4471 117.907 15.5824C117.656 12.5142 116.387 10.9801 114.099 10.9801L113.472 11.022C111.659 11.3288 110.334 12.6676 109.497 15.0385C108.856 16.991 108.535 19.0133 108.535 21.1052C108.535 23.1972 108.8 25.1915 109.33 27.0882L109.455 27.5903C109.595 28.1482 109.776 28.7897 109.999 29.5149C110.222 30.2401 110.515 30.8817 110.878 31.4395C111.268 31.9974 111.743 32.2763 112.3 32.2763H112.468Z" fill="#FCFCFC" fill-opacity="0.9"/>
<path d="M99.8563 38.5183L99.7907 38.501C99.697 38.4763 99.606 38.4288 99.5176 38.3587C99.437 38.284 99.4108 38.1802 99.439 38.0474C99.475 37.91 99.5689 37.7812 99.7206 37.6609C99.8786 37.5423 100.04 37.4348 100.206 37.3382C100.324 37.2693 100.421 37.2047 100.497 37.1446C101.538 36.3842 102.325 35.6103 102.858 34.8228C103.042 34.5573 103.162 34.3152 103.219 34.0965C103.262 33.9341 103.261 33.7735 103.215 33.6146C103.168 33.5153 103.101 33.454 103.013 33.4309C102.888 33.398 102.755 33.4095 102.614 33.4656C102.18 33.6182 101.848 33.8779 101.618 34.2447C101.552 34.3676 101.467 34.4652 101.361 34.5374C101.252 34.5956 101.151 34.6122 101.058 34.5875C100.958 34.5611 100.874 34.4989 100.806 34.4008C100.746 34.2982 100.732 34.1875 100.763 34.0688L100.77 34.0407C100.911 33.6571 101.167 33.3306 101.538 33.0613C101.917 32.7873 102.302 32.6184 102.692 32.5546C102.893 32.5275 103.081 32.537 103.256 32.5832C103.462 32.6377 103.635 32.7402 103.776 32.891C103.923 33.0433 104.015 33.2381 104.053 33.4752C104.098 33.7876 104.083 34.0875 104.007 34.3749C103.826 35.0683 103.335 35.7803 102.536 36.511C102.052 36.9575 101.641 37.3 101.305 37.5384C101.105 37.6658 100.924 37.8084 100.762 37.9661L101.261 38.0879C101.517 38.1555 101.768 38.2419 102.014 38.347L102.04 38.3638C102.244 38.4511 102.335 38.5353 102.314 38.6165L102.295 38.6516C102.23 38.7478 102.035 38.7633 101.712 38.6979C101.532 38.6705 101.245 38.6448 100.851 38.6208C100.521 38.607 100.189 38.5729 99.8563 38.5183Z" fill="#FCFCFC" fill-opacity="0.9"/>
<path d="M47.045 54.18C46.595 54.18 46.195 54.125 45.845 54.015C45.495 53.915 45.22 53.7 45.02 53.37C44.82 53.04 44.72 52.545 44.72 51.885V46.995C44.72 46.445 44.82 46.03 45.02 45.75C45.22 45.46 45.495 45.265 45.845 45.165C46.205 45.065 46.61 45.015 47.06 45.015C47.52 45.015 47.915 45.07 48.245 45.18C48.585 45.28 48.85 45.47 49.04 45.75C49.24 46.03 49.34 46.445 49.34 46.995V48.615H48.185V46.965C48.185 46.605 48.135 46.34 48.035 46.17C47.935 45.99 47.8 45.875 47.63 45.825C47.46 45.765 47.265 45.735 47.045 45.735C46.825 45.735 46.63 45.765 46.46 45.825C46.29 45.875 46.155 45.99 46.055 46.17C45.965 46.34 45.92 46.605 45.92 46.965V52.245C45.92 52.605 45.965 52.875 46.055 53.055C46.155 53.225 46.29 53.34 46.46 53.4C46.63 53.45 46.825 53.475 47.045 53.475C47.275 53.475 47.47 53.45 47.63 53.4C47.8 53.34 47.935 53.225 48.035 53.055C48.135 52.875 48.185 52.605 48.185 52.245V50.805H49.34V51.885C49.34 52.555 49.24 53.055 49.04 53.385C48.85 53.705 48.585 53.915 48.245 54.015C47.905 54.125 47.505 54.18 47.045 54.18ZM50.8462 54V45.135H52.0012V48.945H54.2962V45.135H55.4512V54H54.2962V49.815H52.0012V54H50.8462ZM57.1597 54V45.135H61.0597V45.96H58.3747V48.93H60.5497V49.83H58.3747V53.19H61.0597V54H57.1597ZM62.2573 54V45.135H63.6673L65.3923 51.945L67.1473 45.135H68.5123V54H67.4923V46.98L65.7973 54H64.9873L63.2923 46.98V54H62.2573ZM70.2407 54V45.135H71.3957V54H70.2407ZM75.3018 54.18C74.8518 54.18 74.4518 54.125 74.1018 54.015C73.7518 53.915 73.4768 53.7 73.2768 53.37C73.0768 53.04 72.9768 52.545 72.9768 51.885V46.995C72.9768 46.445 73.0768 46.03 73.2768 45.75C73.4768 45.46 73.7518 45.265 74.1018 45.165C74.4618 45.065 74.8668 45.015 75.3168 45.015C75.7768 45.015 76.1718 45.07 76.5018 45.18C76.8418 45.28 77.1068 45.47 77.2968 45.75C77.4968 46.03 77.5968 46.445 77.5968 46.995V48.615H76.4418V46.965C76.4418 46.605 76.3918 46.34 76.2918 46.17C76.1918 45.99 76.0568 45.875 75.8868 45.825C75.7168 45.765 75.5218 45.735 75.3018 45.735C75.0818 45.735 74.8868 45.765 74.7168 45.825C74.5468 45.875 74.4118 45.99 74.3118 46.17C74.2218 46.34 74.1768 46.605 74.1768 46.965V52.245C74.1768 52.605 74.2218 52.875 74.3118 53.055C74.4118 53.225 74.5468 53.34 74.7168 53.4C74.8868 53.45 75.0818 53.475 75.3018 53.475C75.5318 53.475 75.7268 53.45 75.8868 53.4C76.0568 53.34 76.1918 53.225 76.2918 53.055C76.3918 52.875 76.4418 52.605 76.4418 52.245V50.805H77.5968V51.885C77.5968 52.555 77.4968 53.055 77.2968 53.385C77.1068 53.705 76.8418 53.915 76.5018 54.015C76.1618 54.125 75.7618 54.18 75.3018 54.18ZM78.443 54L80.303 45.135H81.863L83.708 54H82.433L82.013 52.05H80.063L79.673 54H78.443ZM80.108 51.45H81.983L81.053 46.395L80.108 51.45ZM84.7573 54V45.135H85.9123V53.19H88.2523V54H84.7573ZM90.7643 54.105C90.2943 54.105 89.8893 54.03 89.5493 53.88C89.2093 53.72 88.9493 53.45 88.7693 53.07C88.5893 52.69 88.4993 52.165 88.4993 51.495V50.985C88.6993 50.985 88.8993 50.985 89.0993 50.985C89.2993 50.985 89.4943 50.985 89.6843 50.985V51.57C89.6843 52.04 89.7293 52.405 89.8193 52.665C89.9093 52.915 90.0393 53.09 90.2093 53.19C90.3793 53.29 90.5693 53.34 90.7793 53.34C91.1193 53.34 91.3993 53.23 91.6193 53.01C91.8393 52.78 91.9493 52.37 91.9493 51.78C91.9493 51.35 91.8843 51.03 91.7543 50.82C91.6243 50.6 91.4293 50.425 91.1693 50.295C90.9093 50.165 90.5843 50.02 90.1943 49.86C89.8643 49.72 89.5743 49.555 89.3243 49.365C89.0743 49.175 88.8843 48.93 88.7543 48.63C88.6243 48.32 88.5593 47.935 88.5593 47.475C88.5593 46.935 88.6293 46.495 88.7693 46.155C88.9193 45.805 89.1593 45.545 89.4893 45.375C89.8193 45.205 90.2643 45.12 90.8243 45.12C91.5343 45.12 92.0843 45.295 92.4743 45.645C92.8643 45.985 93.0593 46.475 93.0593 47.115V48.12C92.8693 48.12 92.6793 48.12 92.4893 48.12C92.2993 48.12 92.1093 48.12 91.9193 48.12V47.43C91.9193 46.96 91.8293 46.61 91.6493 46.38C91.4693 46.15 91.1943 46.035 90.8243 46.035C90.4343 46.035 90.1543 46.15 89.9843 46.38C89.8143 46.61 89.7293 46.965 89.7293 47.445C89.7293 47.815 89.7993 48.11 89.9393 48.33C90.0893 48.54 90.2793 48.705 90.5093 48.825C90.7493 48.935 90.9993 49.04 91.2593 49.14C91.7093 49.31 92.0693 49.49 92.3393 49.68C92.6193 49.86 92.8243 50.095 92.9543 50.385C93.0843 50.675 93.1493 51.09 93.1493 51.63C93.1493 52.24 93.0493 52.73 92.8493 53.1C92.6493 53.46 92.3693 53.72 92.0093 53.88C91.6593 54.03 91.2443 54.105 90.7643 54.105Z" fill="#FCFCFC" fill-opacity="0.9"/>
</svg>
